<mxfile host="app.diagrams.net" modified="2020-10-21T00:42:25.144Z" agent="5.0 (Windows NT 10.0; Win64; x64) AppleWebKit/537.36 (KHTML, like Gecko) Chrome/86.0.4240.80 Safari/537.36 Edg/86.0.622.43" etag="R0oGQpr6BuUM1eEHZLqe" version="13.8.0" type="github">
  <diagram id="PGwOGW8jr5pXGON_x2NF" name="Page-1">
    <mxGraphModel dx="1422" dy="794" grid="1" gridSize="10" guides="1" tooltips="1" connect="1" arrows="1" fold="1" page="1" pageScale="1" pageWidth="850" pageHeight="1100" math="0" shadow="0">
      <root>
        <mxCell id="0" />
        <mxCell id="1" parent="0" />
        <mxCell id="kntNAHde8xw8YllTZeuv-30" value="DevOps" style="rounded=0;whiteSpace=wrap;html=1;fillColor=none;verticalAlign=bottom;align=right;labelPosition=center;verticalLabelPosition=top;strokeColor=#99CCFF;dashed=1;fontStyle=1" vertex="1" parent="1">
          <mxGeometry x="441" y="30" width="385" height="90" as="geometry" />
        </mxCell>
        <mxCell id="kntNAHde8xw8YllTZeuv-7" value="Azure Resource Group" style="whiteSpace=wrap;html=1;aspect=fixed;fillColor=none;labelPosition=center;verticalLabelPosition=top;align=right;verticalAlign=bottom;dashed=1;strokeColor=#99CCFF;fontStyle=1" vertex="1" parent="1">
          <mxGeometry x="54" y="40" width="320" height="320" as="geometry" />
        </mxCell>
        <mxCell id="kntNAHde8xw8YllTZeuv-6" value="" style="rounded=0;whiteSpace=wrap;html=1;fillColor=#f5f5f5;fontColor=#333333;strokeColor=none;" vertex="1" parent="1">
          <mxGeometry x="93" y="190" width="256" height="160" as="geometry" />
        </mxCell>
        <mxCell id="kntNAHde8xw8YllTZeuv-12" style="edgeStyle=orthogonalEdgeStyle;rounded=0;orthogonalLoop=1;jettySize=auto;html=1;" edge="1" parent="1" source="kntNAHde8xw8YllTZeuv-1" target="kntNAHde8xw8YllTZeuv-4">
          <mxGeometry relative="1" as="geometry" />
        </mxCell>
        <mxCell id="kntNAHde8xw8YllTZeuv-1" value="Cosmos DB" style="aspect=fixed;html=1;points=[];align=center;image;fontSize=12;image=img/lib/azure2/databases/Azure_Cosmos_DB.svg;" vertex="1" parent="1">
          <mxGeometry x="269" y="60" width="50" height="50" as="geometry" />
        </mxCell>
        <mxCell id="kntNAHde8xw8YllTZeuv-10" value="Historical" style="edgeStyle=orthogonalEdgeStyle;rounded=0;orthogonalLoop=1;jettySize=auto;html=1;" edge="1" parent="1" source="kntNAHde8xw8YllTZeuv-2" target="kntNAHde8xw8YllTZeuv-3">
          <mxGeometry relative="1" as="geometry">
            <Array as="points">
              <mxPoint x="163" y="160" />
              <mxPoint x="163" y="160" />
            </Array>
          </mxGeometry>
        </mxCell>
        <mxCell id="kntNAHde8xw8YllTZeuv-31" value="Latest" style="edgeStyle=orthogonalEdgeStyle;rounded=0;orthogonalLoop=1;jettySize=auto;html=1;entryX=-0.02;entryY=0.54;entryDx=0;entryDy=0;entryPerimeter=0;" edge="1" parent="1" source="kntNAHde8xw8YllTZeuv-2" target="kntNAHde8xw8YllTZeuv-1">
          <mxGeometry relative="1" as="geometry" />
        </mxCell>
        <mxCell id="kntNAHde8xw8YllTZeuv-2" value="Function App" style="aspect=fixed;html=1;points=[];align=center;image;fontSize=12;image=img/lib/azure2/compute/Function_Apps.svg;" vertex="1" parent="1">
          <mxGeometry x="129" y="247" width="56.67" height="50" as="geometry" />
        </mxCell>
        <mxCell id="kntNAHde8xw8YllTZeuv-3" value="Storage Account" style="aspect=fixed;html=1;points=[];align=center;image;fontSize=12;image=img/lib/mscae/BlobBlock.svg;" vertex="1" parent="1">
          <mxGeometry x="129" y="60" width="59.52" height="50" as="geometry" />
        </mxCell>
        <mxCell id="kntNAHde8xw8YllTZeuv-4" value="App Service" style="aspect=fixed;html=1;points=[];align=center;image;fontSize=12;image=img/lib/mscae/App_Services.svg;" vertex="1" parent="1">
          <mxGeometry x="269" y="247" width="50" height="50" as="geometry" />
        </mxCell>
        <mxCell id="kntNAHde8xw8YllTZeuv-5" value="App Service Plan" style="aspect=fixed;html=1;points=[];align=center;image;fontSize=12;image=img/lib/mscae/WebHosting.svg;" vertex="1" parent="1">
          <mxGeometry x="79" y="170" width="50" height="50" as="geometry" />
        </mxCell>
        <mxCell id="kntNAHde8xw8YllTZeuv-8" value="" style="aspect=fixed;html=1;points=[];align=center;image;fontSize=12;image=img/lib/mscae/ResourceGroup.svg;" vertex="1" parent="1">
          <mxGeometry x="30" y="20" width="62.5" height="50" as="geometry" />
        </mxCell>
        <mxCell id="kntNAHde8xw8YllTZeuv-14" style="edgeStyle=orthogonalEdgeStyle;rounded=0;orthogonalLoop=1;jettySize=auto;html=1;" edge="1" parent="1" source="kntNAHde8xw8YllTZeuv-13" target="kntNAHde8xw8YllTZeuv-4">
          <mxGeometry relative="1" as="geometry" />
        </mxCell>
        <mxCell id="kntNAHde8xw8YllTZeuv-13" value="User" style="verticalLabelPosition=bottom;html=1;verticalAlign=top;align=center;strokeColor=none;fillColor=#00BEF2;shape=mxgraph.azure.user;" vertex="1" parent="1">
          <mxGeometry x="270.25" y="440" width="47.5" height="50" as="geometry" />
        </mxCell>
        <mxCell id="kntNAHde8xw8YllTZeuv-23" style="edgeStyle=orthogonalEdgeStyle;rounded=0;orthogonalLoop=1;jettySize=auto;html=1;" edge="1" parent="1" source="kntNAHde8xw8YllTZeuv-15" target="kntNAHde8xw8YllTZeuv-17">
          <mxGeometry relative="1" as="geometry" />
        </mxCell>
        <mxCell id="kntNAHde8xw8YllTZeuv-15" value="GitHub" style="dashed=0;outlineConnect=0;html=1;align=center;labelPosition=center;verticalLabelPosition=bottom;verticalAlign=top;shape=mxgraph.weblogos.github;fillColor=none;aspect=fixed;" vertex="1" parent="1">
          <mxGeometry x="626" y="40" width="50" height="50" as="geometry" />
        </mxCell>
        <mxCell id="kntNAHde8xw8YllTZeuv-22" style="edgeStyle=orthogonalEdgeStyle;rounded=0;orthogonalLoop=1;jettySize=auto;html=1;" edge="1" parent="1" source="kntNAHde8xw8YllTZeuv-16" target="kntNAHde8xw8YllTZeuv-15">
          <mxGeometry relative="1" as="geometry" />
        </mxCell>
        <mxCell id="kntNAHde8xw8YllTZeuv-16" value="Azure Boards" style="aspect=fixed;html=1;points=[];align=center;image;fontSize=12;image=img/lib/mscae/Azure_Boards.svg;fillColor=none;" vertex="1" parent="1">
          <mxGeometry x="746" y="40" width="50" height="50" as="geometry" />
        </mxCell>
        <mxCell id="kntNAHde8xw8YllTZeuv-24" value="ARM Deploy" style="edgeStyle=orthogonalEdgeStyle;rounded=0;orthogonalLoop=1;jettySize=auto;html=1;entryX=0.997;entryY=0.091;entryDx=0;entryDy=0;entryPerimeter=0;strokeColor=#33FF33;" edge="1" parent="1" source="kntNAHde8xw8YllTZeuv-17" target="kntNAHde8xw8YllTZeuv-7">
          <mxGeometry relative="1" as="geometry">
            <mxPoint x="450" y="230" as="targetPoint" />
          </mxGeometry>
        </mxCell>
        <mxCell id="kntNAHde8xw8YllTZeuv-29" value="Function App Deploy" style="edgeStyle=orthogonalEdgeStyle;rounded=0;orthogonalLoop=1;jettySize=auto;html=1;strokeColor=#33FF33;" edge="1" parent="1" source="kntNAHde8xw8YllTZeuv-17" target="kntNAHde8xw8YllTZeuv-2">
          <mxGeometry relative="1" as="geometry">
            <Array as="points">
              <mxPoint x="485" y="65" />
              <mxPoint x="485" y="210" />
              <mxPoint x="157" y="210" />
            </Array>
          </mxGeometry>
        </mxCell>
        <mxCell id="kntNAHde8xw8YllTZeuv-17" value="Azure Pipelines" style="aspect=fixed;html=1;points=[];align=center;image;fontSize=12;image=img/lib/mscae/Azure_Pipelines	.svg;fillColor=none;" vertex="1" parent="1">
          <mxGeometry x="510" y="40" width="50" height="50" as="geometry" />
        </mxCell>
        <mxCell id="kntNAHde8xw8YllTZeuv-26" value="WebApp Deploy" style="edgeStyle=orthogonalEdgeStyle;rounded=0;orthogonalLoop=1;jettySize=auto;html=1;strokeColor=#33FF33;" edge="1" parent="1" source="kntNAHde8xw8YllTZeuv-18" target="kntNAHde8xw8YllTZeuv-4">
          <mxGeometry relative="1" as="geometry" />
        </mxCell>
        <mxCell id="kntNAHde8xw8YllTZeuv-27" style="edgeStyle=orthogonalEdgeStyle;rounded=0;orthogonalLoop=1;jettySize=auto;html=1;entryX=0.5;entryY=0;entryDx=0;entryDy=0;strokeColor=#33FF33;" edge="1" parent="1" source="kntNAHde8xw8YllTZeuv-18" target="kntNAHde8xw8YllTZeuv-19">
          <mxGeometry relative="1" as="geometry" />
        </mxCell>
        <mxCell id="kntNAHde8xw8YllTZeuv-28" style="edgeStyle=orthogonalEdgeStyle;rounded=0;orthogonalLoop=1;jettySize=auto;html=1;entryX=0.5;entryY=0;entryDx=0;entryDy=0;strokeColor=#33FF33;" edge="1" parent="1" source="kntNAHde8xw8YllTZeuv-18" target="kntNAHde8xw8YllTZeuv-21">
          <mxGeometry relative="1" as="geometry" />
        </mxCell>
        <mxCell id="kntNAHde8xw8YllTZeuv-18" value="Ionic AppFlow" style="shape=image;html=1;verticalAlign=top;verticalLabelPosition=bottom;labelBackgroundColor=#ffffff;imageAspect=0;aspect=fixed;image=https://cdn0.iconfinder.com/data/icons/designer-skills/128/ionic-128.png;fillColor=none;" vertex="1" parent="1">
          <mxGeometry x="626" y="240" width="50" height="50" as="geometry" />
        </mxCell>
        <mxCell id="kntNAHde8xw8YllTZeuv-19" value="" style="shape=image;html=1;verticalAlign=top;verticalLabelPosition=bottom;labelBackgroundColor=#ffffff;imageAspect=0;aspect=fixed;image=https://cdn3.iconfinder.com/data/icons/logos-brands-3/24/logo_brand_brands_logos_apple_ios-128.png;fillColor=none;" vertex="1" parent="1">
          <mxGeometry x="626" y="433" width="50" height="50" as="geometry" />
        </mxCell>
        <mxCell id="kntNAHde8xw8YllTZeuv-21" value="" style="shape=image;html=1;verticalAlign=top;verticalLabelPosition=bottom;labelBackgroundColor=#ffffff;imageAspect=0;aspect=fixed;image=https://cdn1.iconfinder.com/data/icons/logotypes/32/google-play-128.png;fillColor=none;" vertex="1" parent="1">
          <mxGeometry x="776" y="433" width="50" height="50" as="geometry" />
        </mxCell>
      </root>
    </mxGraphModel>
  </diagram>
</mxfile>
